<svg width="68" height="75" viewBox="0 0 68 75" fill="none" xmlns="http://www.w3.org/2000/svg">
<g clip-path="url(#clip0_1991_20593)">
<path d="M0.314453 14.1032V31.0158H5.94776H62.3485H67.9897V14.1016L34.1493 24.2659L0.314453 14.1032Z" fill="#DF231D"/>
<path d="M39.781 8.48498V12.6809H28.5064V8.48498L0.314453 0V14.1024L34.1493 24.2651L67.9897 14.1008V0L39.781 8.48498Z" fill="#0055B8"/>
<path d="M62.348 31.0156H5.94727V47.9179H62.348V31.0156Z" fill="#0055B8"/>
<path d="M49.2337 36.3493C48.7721 39.0998 44.8404 40.3852 39.6257 40.8317C38.6929 40.9121 37.7196 40.9646 36.7167 40.9949C30.7714 41.1723 25.7048 40.4728 24.078 37.9991H24.0732C25.938 40.9996 30.6616 43.0952 36.817 42.9122C37.0056 42.9058 37.1919 42.8978 37.3781 42.8883C43.7731 42.55 48.7888 39.7596 49.2369 36.3477L49.2337 36.3493Z" fill="white"/>
<path d="M44.5333 29.471L44.5317 29.4734C44.6343 29.5419 44.7338 29.6135 44.8349 29.6843C42.2252 27.8609 39.1793 26.3368 37.804 24.7005C35.1999 21.6037 38.3436 19.029 42.5579 18.6668C43.0346 22.0915 52.3195 25.4828 48.3838 21.9539C44.4481 18.4257 46.086 15.9624 48.7769 14.1295C51.4678 12.2957 46.0455 12.4422 42.6335 17.325C41.1022 17.3894 39.6401 17.5621 38.2513 17.828C38.4447 16.6644 38.9589 16.2195 39.5263 14.4606C40.1264 12.6045 36.4239 14.9206 34.158 18.9534C27.9406 21.2248 23.8473 25.5561 22.7864 30.1786C21.9977 32.4938 11.9153 27.8212 13.1553 31.1989C14.0865 33.7346 22.8978 36.3157 24.0781 37.9966C25.7057 40.471 30.7715 41.1698 36.7176 40.9931C37.7197 40.9629 38.693 40.9104 39.6258 40.83C44.8413 40.3835 48.7722 39.0973 49.2338 36.3475C49.2338 36.3412 49.2354 36.3356 49.237 36.33V36.3435C49.8713 33.8604 54.0004 31.608 54.6625 30.4038C56.31 27.4137 47.4279 31.5236 44.5333 29.471Z" fill="#00A6E2"/>
<path d="M31.5819 40.1672C30.5067 40.0701 29.5994 40.2938 29.5524 40.6647C29.5453 40.7235 29.562 40.7809 29.5962 40.8382C29.714 40.6567 30.2074 40.5548 30.7845 40.6066C31.4291 40.6639 31.9297 40.8915 31.9027 41.1143C31.8764 41.3252 31.3885 41.4534 30.7932 41.4192C30.9866 41.4605 31.1959 41.4924 31.4164 41.5115C32.4916 41.6086 33.3997 41.3857 33.4451 41.0132C33.4905 40.6424 32.6572 40.2635 31.5819 40.1672Z" fill="white"/>
<path d="M31.9032 41.1115C31.9302 40.8879 31.4288 40.661 30.7849 40.6029C30.2079 40.552 29.7145 40.6539 29.5967 40.8345C29.7312 41.0693 30.1856 41.289 30.7929 41.4163C31.389 41.4498 31.8769 41.3216 31.9032 41.1115Z" fill="#0055B8"/>
<path d="M45.0972 39.3007C44.3825 39.5434 43.8939 39.9398 44.0077 40.1865C44.0244 40.2255 44.057 40.2574 44.1008 40.2836C44.1056 40.1364 44.3794 39.9326 44.7614 39.8029C45.1904 39.6565 45.5931 39.6588 45.6615 39.8077C45.7252 39.947 45.4673 40.1666 45.0773 40.3123C45.215 40.2836 45.3599 40.2454 45.5063 40.1953C46.221 39.9525 46.7089 39.5562 46.5959 39.3087C46.4821 39.0619 45.8119 39.0579 45.0972 39.3007Z" fill="white"/>
<path d="M45.6613 39.8081C45.5929 39.6593 45.1902 39.6577 44.7612 39.8034C44.3791 39.9331 44.1054 40.1368 44.1006 40.2849C44.2765 40.3939 44.6466 40.4043 45.0771 40.3135C45.4671 40.1671 45.725 39.9482 45.6613 39.8081Z" fill="#0055B8"/>
<path d="M44.4063 38.3053C44.9444 38.3053 45.3797 37.8692 45.3797 37.3327C45.3797 36.7963 44.9444 36.3594 44.4063 36.3594C43.8683 36.3594 43.4346 36.7947 43.4346 37.3327C43.4346 37.8708 43.8699 38.3053 44.4063 38.3053Z" fill="white"/>
<path d="M27.3924 35.1664C27.8492 35.1664 28.2193 34.7955 28.2193 34.3394C28.2193 33.8834 27.8492 33.5117 27.3924 33.5117C26.9355 33.5117 26.5654 33.8826 26.5654 34.3394C26.5654 34.7963 26.9363 35.1664 27.3924 35.1664Z" fill="white"/>
<path d="M22.5289 35.1812C22.9849 35.1812 23.355 34.8119 23.355 34.3543C23.355 33.8966 22.9849 33.5273 22.5289 33.5273C22.0729 33.5273 21.7012 33.8982 21.7012 34.3543C21.7012 34.8103 22.0721 35.1812 22.5289 35.1812Z" fill="white"/>
<path d="M32.2576 35.1664C32.7144 35.1664 33.0845 34.7955 33.0845 34.3394C33.0845 33.8834 32.7144 33.5117 32.2576 33.5117C31.8008 33.5117 31.4307 33.8826 31.4307 34.3394C31.4307 34.7963 31.8008 35.1664 32.2576 35.1664Z" fill="white"/>
<path d="M24.9604 32.6095C25.348 32.6095 25.6632 32.2943 25.6632 31.9067C25.6632 31.5191 25.348 31.2031 24.9604 31.2031C24.5728 31.2031 24.2568 31.5183 24.2568 31.9067C24.2568 32.2951 24.572 32.6095 24.9604 32.6095Z" fill="white"/>
<path d="M29.8248 32.6095C30.2132 32.6095 30.5284 32.2943 30.5284 31.9067C30.5284 31.5191 30.2132 31.2031 29.8248 31.2031C29.4364 31.2031 29.1221 31.5183 29.1221 31.9067C29.1221 32.2951 29.4372 32.6095 29.8248 32.6095Z" fill="white"/>
<path d="M34.6893 32.6095C35.0785 32.6095 35.3928 32.2943 35.3928 31.9067C35.3928 31.5191 35.0785 31.2031 34.6893 31.2031C34.3025 31.2031 33.9873 31.5183 33.9873 31.9067C33.9873 32.2951 34.3025 32.6095 34.6893 32.6095Z" fill="white"/>
<path d="M27.3917 30.0743C27.722 30.0743 27.9894 29.8069 27.9894 29.4766C27.9894 29.1463 27.722 28.8789 27.3917 28.8789C27.0614 28.8789 26.7939 29.1463 26.7939 29.4766C26.7939 29.8069 27.0614 30.0743 27.3917 30.0743Z" fill="white"/>
<path d="M24.9607 27.5507C25.2417 27.5507 25.4693 27.3239 25.4693 27.0429C25.4693 26.762 25.2417 26.5352 24.9607 26.5352C24.6798 26.5352 24.4521 26.762 24.4521 27.0429C24.4521 27.3239 24.6798 27.5507 24.9607 27.5507Z" fill="white"/>
<path d="M29.8242 27.5507C30.1051 27.5507 30.3328 27.3239 30.3328 27.0429C30.3328 26.762 30.1051 26.5352 29.8242 26.5352C29.5432 26.5352 29.3164 26.762 29.3164 27.0429C29.3164 27.3239 29.544 27.5507 29.8242 27.5507Z" fill="white"/>
<path d="M34.6886 27.5507C34.9704 27.5507 35.1972 27.3239 35.1972 27.0429C35.1972 26.762 34.9704 26.5352 34.6886 26.5352C34.4085 26.5352 34.1816 26.762 34.1816 27.0429C34.1816 27.3239 34.4085 27.5507 34.6886 27.5507Z" fill="white"/>
<path d="M39.5545 27.5507C39.8346 27.5507 40.0615 27.3239 40.0615 27.0429C40.0615 26.762 39.8346 26.5352 39.5545 26.5352C39.2727 26.5352 39.0459 26.762 39.0459 27.0429C39.0459 27.3239 39.2727 27.5507 39.5545 27.5507Z" fill="white"/>
<path d="M32.2579 30.0743C32.5874 30.0743 32.8548 29.8069 32.8548 29.4766C32.8548 29.1463 32.5874 28.8789 32.2579 28.8789C31.9284 28.8789 31.6602 29.1463 31.6602 29.4766C31.6602 29.8069 31.9284 30.0743 32.2579 30.0743Z" fill="white"/>
<path d="M37.1213 30.0743C37.4516 30.0743 37.7182 29.8069 37.7182 29.4766C37.7182 29.1463 37.4516 28.8789 37.1213 28.8789C36.791 28.8789 36.5244 29.1463 36.5244 29.4766C36.5244 29.8069 36.7918 30.0743 37.1213 30.0743Z" fill="white"/>
<path d="M41.9856 30.0743C42.3167 30.0743 42.5841 29.8069 42.5841 29.4766C42.5841 29.1463 42.3167 28.8789 41.9856 28.8789C41.6545 28.8789 41.3887 29.1463 41.3887 29.4766C41.3887 29.8069 41.6561 30.0743 41.9856 30.0743Z" fill="white"/>
<path d="M39.5543 32.6095C39.9411 32.6095 40.2571 32.2943 40.2571 31.9067C40.2571 31.5191 39.9411 31.2031 39.5543 31.2031C39.1675 31.2031 38.8516 31.5183 38.8516 31.9067C38.8516 32.2951 39.1659 32.6095 39.5543 32.6095Z" fill="white"/>
<path d="M44.4176 32.6095C44.806 32.6095 45.1204 32.2943 45.1204 31.9067C45.1204 31.5191 44.806 31.2031 44.4176 31.2031C44.0292 31.2031 43.7148 31.5183 43.7148 31.9067C43.7148 32.2951 44.0292 32.6095 44.4176 32.6095Z" fill="white"/>
<path d="M37.1209 35.1664C37.5777 35.1664 37.9478 34.7955 37.9478 34.3394C37.9478 33.8834 37.5777 33.5117 37.1209 33.5117C36.664 33.5117 36.2939 33.8826 36.2939 34.3394C36.2939 34.7963 36.6648 35.1664 37.1209 35.1664Z" fill="white"/>
<path d="M41.9851 35.1664C42.442 35.1664 42.8121 34.7955 42.8121 34.3394C42.8121 33.8834 42.442 33.5117 41.9851 33.5117C41.5283 33.5117 41.1582 33.8826 41.1582 34.3394C41.1582 34.7963 41.5283 35.1664 41.9851 35.1664Z" fill="white"/>
<path d="M46.8504 35.1664C47.3056 35.1664 47.6773 34.7955 47.6773 34.3394C47.6773 33.8834 47.3056 33.5117 46.8504 33.5117C46.3951 33.5117 46.0234 33.8826 46.0234 34.3394C46.0234 34.7963 46.3935 35.1664 46.8504 35.1664Z" fill="white"/>
<path d="M34.7107 38.9811C35.2479 38.9811 35.6833 38.5458 35.6833 38.0077C35.6833 37.4697 35.2479 37.0352 34.7107 37.0352C34.1735 37.0352 33.7373 37.4705 33.7373 38.0077C33.7373 38.545 34.1735 38.9811 34.7107 38.9811Z" fill="white"/>
<path d="M39.5593 38.9811C40.0973 38.9811 40.5327 38.5458 40.5327 38.0077C40.5327 37.4697 40.0973 37.0352 39.5593 37.0352C39.0213 37.0352 38.5859 37.4705 38.5859 38.0077C38.5859 38.545 39.0213 38.9811 39.5593 38.9811Z" fill="white"/>
<path d="M29.8201 38.7116C30.3573 38.7116 30.7934 38.2762 30.7934 37.7382C30.7934 37.2002 30.3573 36.7656 29.8201 36.7656C29.2828 36.7656 28.8467 37.2018 28.8467 37.7382C28.8467 38.2746 29.2828 38.7116 29.8201 38.7116Z" fill="white"/>
<path d="M43.5678 74.9911V73.0953H27.5728L29.2378 66.4202V59.6328H25.0713V61.5294H27.3412V66.4202L25.2042 74.9927L43.5678 74.9911Z" fill="#231815"/>
<path d="M43.9511 57.9245V56.0286H39.3294V54.6836H37.4336V57.9245H43.9511Z" fill="#231815"/>
<path d="M64.2709 56.0279V54.6836H62.3735V56.0279H59.0156V58.8071H60.9114V57.9245H66.103V58.8071H68.0004V56.0279H64.2709Z" fill="#231815"/>
<path d="M58.2467 74.9897L56.3103 70.1944H54.4137L55.586 73.0938H51.4769V69.2712L58.0883 69.3062V59.6314H54.7957V57.9258H52.8999V59.6314H49.5811V74.9897H58.2467ZM51.4769 65.3992H56.1917V67.3754H51.4769V65.3992ZM56.1917 63.5034H51.4769V61.528H56.1917V63.5034Z" fill="#231815"/>
<path d="M26.5132 54.7177L25.1719 56.0586L28.0878 58.9753L29.4291 57.6344L26.5132 54.7177Z" fill="#231815"/>
<path d="M1.3411 54.9597L0 56.3008L3.25061 59.5514L4.59171 58.2103L1.3411 54.9597Z" fill="#231815"/>
<path d="M1.3411 60.5456L0 61.8867L3.25061 65.1373L4.59171 63.7962L1.3411 60.5456Z" fill="#231815"/>
<path d="M2.85666 66.1362L0.0185547 74.3828L1.81118 74.9997L4.64928 66.7531L2.85666 66.1362Z" fill="#231815"/>
<path d="M19.2531 57.925V56.0292H7.78596L8.05895 54.4414H6.16235L5.56543 57.9274L19.2531 57.925Z" fill="#231815"/>
<path d="M30.2236 72.5974H32.1194V61.5274H34.5549V72.5974H36.4507V59.634L32.1194 59.6308V57.9276L36.4507 57.9252V56.0302H34.0152V54.6875H32.1194V56.0302H30.2236V72.5974Z" fill="#231815"/>
<path d="M19.2531 74.9911H19.2611V59.6328H5.56543V74.9911H19.2531ZM17.3645 66.3636H13.3612V61.5294H17.3645V66.3636ZM7.46203 61.5294H11.4654V66.3636H7.46203V61.5294ZM7.46203 68.2603H11.4654V73.0953H7.46203V68.2603ZM13.3612 68.2603H17.3645V73.0953H13.3612V68.2603Z" fill="#231815"/>
<path d="M59.0156 59.6328V74.9911H67.9988V68.1027H60.9106V66.2506H67.9988V59.6344L59.0156 59.6328ZM66.1022 73.0953H60.9106V69.9977H66.1022V73.0953ZM60.9106 61.5294H66.1022V64.3556H60.9106V61.5294Z" fill="#231815"/>
<path d="M58.1128 59.3287V57.2864L53.9949 54.457L49.5801 57.2864V59.3287L53.9949 56.5001L58.1128 59.3287Z" fill="#231815"/>
<path d="M37.4336 59.6328V61.5294H40.9713L39.6533 64.5633H37.4336V66.4592H39.6517V72.5994H41.5483V66.4592H43.6622V64.5633H41.5483L43.6901 59.636L37.4336 59.6328Z" fill="#231815"/>
</g>
<defs>
<clipPath id="clip0_1991_20593">
<rect width="68" height="74.9998" fill="white"/>
</clipPath>
</defs>
</svg>
